<svg viewBox="0 0 100 100" xmlns="http://www.w3.org/2000/svg">
  <defs>
    <linearGradient id="bg3" x1="0%" y1="0%" x2="100%" y2="100%">
      <stop offset="0%" style="stop-color:#DC2626;stop-opacity:1" />
      <stop offset="100%" style="stop-color:#EA580C;stop-opacity:1" />
    </linearGradient>
  </defs>
  
  <!-- Background -->
  <circle cx="50" cy="50" r="50" fill="url(#bg3)"/>
  
  <!-- Face -->
  <circle cx="50" cy="40" r="18" fill="#D2B48C" stroke="#CD853F" stroke-width="0.5"/>
  
  <!-- Hair (short professional style) -->
  <path d="M32 32 Q50 25 68 32 Q68 28 50 25 Q32 28 32 32" fill="#2D1B69"/>
  <path d="M35 30 Q50 28 65 30 L65 35 Q50 32 35 35 Z" fill="#4C1D95"/>
  
  <!-- Eyes -->
  <circle cx="44" cy="38" r="2" fill="#1F2937"/>
  <circle cx="56" cy="38" r="2" fill="#1F2937"/>
  <circle cx="44.5" cy="37.5" r="0.5" fill="#FFFFFF"/>
  <circle cx="56.5" cy="37.5" r="0.5" fill="#FFFFFF"/>
  
  <!-- Eyebrows -->
  <path d="M42 35 Q44 34 46 35" fill="none" stroke="#2D1B69" stroke-width="1" stroke-linecap="round"/>
  <path d="M54 35 Q56 34 58 35" fill="none" stroke="#2D1B69" stroke-width="1" stroke-linecap="round"/>
  
  <!-- Nose -->
  <line x1="50" y1="40" x2="50" y2="43" stroke="#CD853F" stroke-width="0.5"/>
  
  <!-- Mouth (professional smile) -->
  <path d="M46 45 Q50 48 54 45" fill="none" stroke="#DC2626" stroke-width="1.5" stroke-linecap="round"/>
  
  <!-- Professional suit -->
  <path d="M30 70 Q50 65 70 70 L75 100 L25 100 Z" fill="#1F2937"/>
  <path d="M45 70 Q50 72 55 70 L55 100 L45 100 Z" fill="#FFFFFF"/>
  
  <!-- Tie -->
  <path d="M48 70 Q50 75 52 70 L52 85 Q50 88 48 85 Z" fill="#DC2626"/>
  
  <!-- Collar -->
  <path d="M45 70 L50 75 L55 70" fill="none" stroke="#1F2937" stroke-width="1"/>
</svg> 