<svg viewBox="0 0 100 100" xmlns="http://www.w3.org/2000/svg">
  <defs>
    <linearGradient id="bg2" x1="0%" y1="0%" x2="100%" y2="100%">
      <stop offset="0%" style="stop-color:#059669;stop-opacity:1" />
      <stop offset="100%" style="stop-color:#0891B2;stop-opacity:1" />
    </linearGradient>
  </defs>
  
  <!-- Background -->
  <circle cx="50" cy="50" r="50" fill="url(#bg2)"/>
  
  <!-- Face -->
  <circle cx="50" cy="40" r="18" fill="#FEF3C7" stroke="#F59E0B" stroke-width="0.5"/>
  
  <!-- Hair (professional bob cut) -->
  <path d="M32 30 Q50 22 68 30 Q70 35 65 42 Q60 45 50 44 Q40 45 35 42 Q30 35 32 30" fill="#92400E"/>
  <path d="M35 32 Q50 28 65 32 Q65 38 60 42 Q55 44 50 43 Q45 44 40 42 Q35 38 35 32" fill="#B45309"/>
  
  <!-- Eyes -->
  <circle cx="44" cy="38" r="2" fill="#1F2937"/>
  <circle cx="56" cy="38" r="2" fill="#1F2937"/>
  <circle cx="44.5" cy="37.5" r="0.5" fill="#FFFFFF"/>
  <circle cx="56.5" cy="37.5" r="0.5" fill="#FFFFFF"/>
  
  <!-- Eyebrows -->
  <path d="M42 35 Q44 34 46 35" fill="none" stroke="#92400E" stroke-width="1" stroke-linecap="round"/>
  <path d="M54 35 Q56 34 58 35" fill="none" stroke="#92400E" stroke-width="1" stroke-linecap="round"/>
  
  <!-- Nose -->
  <line x1="50" y1="40" x2="50" y2="43" stroke="#D97706" stroke-width="0.5"/>
  
  <!-- Mouth (confident smile) -->
  <path d="M46 45 Q50 48 54 45" fill="none" stroke="#DC2626" stroke-width="1.5" stroke-linecap="round"/>
  
  <!-- Professional blazer -->
  <path d="M30 70 Q50 65 70 70 L75 100 L25 100 Z" fill="#1F2937"/>
  <path d="M45 70 Q50 72 55 70 L55 100 L45 100 Z" fill="#FFFFFF"/>
  
  <!-- Lapels -->
  <path d="M35 70 Q40 75 45 70" fill="none" stroke="#374151" stroke-width="1"/>
  <path d="M55 70 Q60 75 65 70" fill="none" stroke="#374151" stroke-width="1"/>
  
  <!-- Necklace detail -->
  <circle cx="50" cy="65" r="1.5" fill="#F59E0B"/>
</svg> 