<svg viewBox="0 0 100 100" xmlns="http://www.w3.org/2000/svg">
  <defs>
    <linearGradient id="bg" x1="0%" y1="0%" x2="100%" y2="100%">
      <stop offset="0%" style="stop-color:#4F46E5;stop-opacity:1" />
      <stop offset="100%" style="stop-color:#7C3AED;stop-opacity:1" />
    </linearGradient>
  </defs>
  
  <!-- Background -->
  <circle cx="50" cy="50" r="50" fill="url(#bg)"/>
  
  <!-- Face -->
  <circle cx="50" cy="40" r="18" fill="#FEF3C7" stroke="#F59E0B" stroke-width="0.5"/>
  
  <!-- Hair (older gentleman, gray) -->
  <path d="M32 32 Q50 25 68 32 Q68 28 50 25 Q32 28 32 32" fill="#9CA3AF"/>
  <path d="M35 30 Q50 28 65 30 L65 35 Q50 32 35 35 Z" fill="#9CA3AF"/>
  
  <!-- Eyes -->
  <circle cx="44" cy="38" r="2" fill="#1F2937"/>
  <circle cx="56" cy="38" r="2" fill="#1F2937"/>
  <circle cx="44.5" cy="37.5" r="0.5" fill="#FFFFFF"/>
  <circle cx="56.5" cy="37.5" r="0.5" fill="#FFFFFF"/>
  
  <!-- Glasses (retired teacher detail) -->
  <circle cx="44" cy="38" r="4" fill="none" stroke="#374151" stroke-width="1"/>
  <circle cx="56" cy="38" r="4" fill="none" stroke="#374151" stroke-width="1"/>
  <line x1="48" y1="38" x2="52" y2="38" stroke="#374151" stroke-width="1"/>
  
  <!-- Nose -->
  <line x1="50" y1="40" x2="50" y2="43" stroke="#D97706" stroke-width="0.5"/>
  
  <!-- Mouth (subtle smile) -->
  <path d="M46 45 Q50 48 54 45" fill="none" stroke="#DC2626" stroke-width="1" stroke-linecap="round"/>
  
  <!-- Professional shirt -->
  <path d="M30 70 Q50 65 70 70 L75 100 L25 100 Z" fill="#1E40AF"/>
  <path d="M45 70 Q50 72 55 70 L55 100 L45 100 Z" fill="#3B82F6"/>
  
  <!-- Collar -->
  <path d="M45 70 L50 75 L55 70" fill="none" stroke="#1E40AF" stroke-width="1"/>
</svg> 